<svg xmlns="http://www.w3.org/2000/svg" version="1.1" xmlns:xlink="http://www.w3.org/1999/xlink" xmlns:svgjs="http://svgjs.dev/svgjs" width="1440" height="560" preserveAspectRatio="none" viewBox="0 0 1440 560"><g mask="url(&quot;#SvgjsMask5811&quot;)" fill="none"><rect width="1440" height="560" x="0" y="0" fill="url(&quot;#SvgjsLinearGradient5812&quot;)"></rect><path d="M1276.42 365.93a51.3 51.3 0 1 0-79.97 64.27z" fill="#037b0b"></path><path d="M38.46 360.8L58.75 360.8L58.75 366.16L38.46 366.16z" stroke="#d3b714"></path><path d="M627.83 32.71L682.79 32.71L682.79 87.67L627.83 87.67z" fill="#d3b714"></path><path d="M569.56 221.76L609.66 221.76L609.66 261.86L569.56 261.86z" fill="#037b0b"></path><path d="M566.74 204.33a28.92 28.92 0 1 0-43.27-38.39z" fill="#e73635"></path><path d="M1025.61 510.07L1063.72 510.07L1063.72 562.3L1025.61 562.3z" fill="#037b0b"></path><path d="M262.3 203.72a1.62 1.62 0 1 0 2.86 1.53z" stroke="#037b0b"></path><path d="M588.22 343.06L640.26 343.06L640.26 345.68L588.22 345.68z" stroke="#e73635"></path><path d="M643.81 461.32L681.18 461.32L681.18 513.43L643.81 513.43z" stroke="#d3b714"></path><path d="M1343.22 91.15a14.65 14.65 0 1 0-23.99 16.82z" fill="#d3b714"></path><path d="M418.11 461.1a45.93 45.93 0 1 0 66.25-63.64z" stroke="#e73635"></path><path d="M390.83 185.08a6.53 6.53 0 1 0-10.38 7.93z" fill="#e73635"></path><path d="M887.38 130.88 a35.5 35.5 0 1 0 71 0 a35.5 35.5 0 1 0 -71 0z" fill="#e73635"></path><path d="M1391.96 122.02a39.23 39.23 0 1 0-20.21-75.81z" fill="#e73635"></path><path d="M492.51 539.46 a26.84 26.84 0 1 0 53.68 0 a26.84 26.84 0 1 0 -53.68 0z" stroke="#037b0b"></path><path d="M853.21 151.92L865.24 151.92L865.24 171.42L853.21 171.42z" fill="#d3b714"></path><path d="M934.8 448.42a43.52 43.52 0 1 0 59-64z" fill="#d3b714"></path><path d="M724.2 557.74L753.73 557.74L753.73 587.27L724.2 587.27z" fill="#037b0b"></path><path d="M302.23 378.3L305.11 378.3L305.11 381.18L302.23 381.18z" fill="#037b0b"></path><path d="M343.68 211.34L388.01 211.34L388.01 261.52L343.68 261.52z" stroke="#037b0b"></path><path d="M1007.85 290.51L1053.15 290.51L1053.15 342.49L1007.85 342.49z" stroke="#d3b714"></path><path d="M1150.82 472.65a53.35 53.35 0 1 0 104.28 22.58z" stroke="#e73635"></path><path d="M115.54 484.37 a26.91 26.91 0 1 0 53.82 0 a26.91 26.91 0 1 0 -53.82 0z" fill="#e73635"></path><path d="M343.75 162.94L397.07 162.94L397.07 212.23L343.75 212.23z" stroke="#d3b714"></path><path d="M26.09 201.65 a23.99 23.99 0 1 0 47.98 0 a23.99 23.99 0 1 0 -47.98 0z" stroke="#037b0b"></path><path d="M1306.77 320.36L1331.47 320.36L1331.47 345.06L1306.77 345.06z" fill="#e73635"></path><path d="M154.75 446.73L173.75 446.73L173.75 481.24L154.75 481.24z" fill="#d3b714"></path><path d="M1364.02 528 a11.29 11.29 0 1 0 22.58 0 a11.29 11.29 0 1 0 -22.58 0z" fill="#037b0b"></path><path d="M1089.87 343.75 a51.83 51.83 0 1 0 103.66 0 a51.83 51.83 0 1 0 -103.66 0z" fill="#d3b714"></path><path d="M597.52 282.48a48.22 48.22 0 1 0-6.17-96.25z" stroke="#037b0b"></path><path d="M1135.48 108.55 a31.58 31.58 0 1 0 63.16 0 a31.58 31.58 0 1 0 -63.16 0z" fill="#e73635"></path><path d="M387.74 189.61L391.69 189.61L391.69 193.56L387.74 193.56z" stroke="#e73635"></path><path d="M217.76 76.71a50.26 50.26 0 1 0 98.44-20.34z" stroke="#e73635"></path></g><defs><mask id="SvgjsMask5811"><rect width="1440" height="560" fill="#ffffff"></rect></mask><linearGradient x1="15.28%" y1="-39.29%" x2="84.72%" y2="139.29%" gradientUnits="userSpaceOnUse" id="SvgjsLinearGradient5812"><stop stop-color="rgba(255, 190, 0, 1)" offset="0.35"></stop><stop stop-color="rgba(158, 129, 0, 1)" offset="1"></stop></linearGradient></defs></svg>